<svg width="44" height="50" viewBox="0 0 44 50" fill="none" xmlns="http://www.w3.org/2000/svg">
<path d="M17.2718 28.1974C17.2718 33.8559 22.3816 38.3141 28.8975 38.3141C35.4134 38.3141 40.5575 33.8559 40.5575 28.1974V22.3674C40.5575 16.7088 35.4134 12.2506 28.8975 12.2506C22.3816 12.2506 17.2718 16.7088 17.2718 22.3674V28.1974ZM15.9 28.1974V22.3674C15.9 16.0229 21.6272 11.016 28.8975 11.016C36.2022 11.016 41.9293 16.0229 41.9293 22.3674V28.1974C41.9293 34.5418 36.2022 39.5487 28.8975 39.5487C21.6272 39.5487 15.9 34.5418 15.9 28.1974Z" fill="black"/>
<path d="M20.6388 36.4118L39.8123 17.2383" stroke="black" stroke-width="1.24706"/>
<path d="M30.1477 27.0588L38.4094 35.3206" stroke="black" stroke-width="1.24706"/>
<path d="M14.575 24.8828C19.7534 24.8828 23.32 27.6606 23.32 32.0503C23.32 36.4399 19.7534 39.2178 14.575 39.2178H0V37.9832H14.575C18.8961 37.9832 21.9482 35.6855 21.9482 32.0503C21.9482 28.4151 18.8961 26.1174 14.575 26.1174H8.745C3.56659 26.1174 0 23.3396 0 18.9499C0 14.5603 3.56659 11.7825 8.745 11.7825L24.6917 11.7825V13.0171H8.745C4.42394 13.0171 1.37176 15.3148 1.37176 18.9499C1.37176 22.5851 4.42394 24.8828 8.745 24.8828H14.575Z" fill="black"/>
</svg>
